<svg width="26" height="27" viewBox="0 0 26 27" fill="none" xmlns="http://www.w3.org/2000/svg">
<path d="M5.237 6.45652C7.29962 4.25971 9.60339 2.57656 11.1616 1.55717C12.2973 0.814225 13.7027 0.814225 14.8384 1.55718C16.3966 2.57656 18.7004 4.25971 20.763 6.45652C25.235 11.2194 24.9974 13.9729 24.9974 18.4827C24.9974 20.602 24.8415 22.3894 24.6763 23.6887C24.5024 25.0558 23.3829 25.999 22.0876 25.999H20.0573C18.4982 25.999 17.2344 24.653 17.2344 22.9925V19.9859C17.2344 18.7899 16.7882 17.6428 15.9941 16.797C15.2 15.9513 14.123 15.4761 13 15.4761C11.877 15.4761 10.7999 15.9513 10.0059 16.797C9.21175 17.6428 8.76564 18.7899 8.76564 19.9859V22.9925C8.76564 24.653 7.50178 25.999 5.94273 25.999H3.91243C2.61709 25.999 1.49757 25.0558 1.32372 23.6887C1.1585 22.3894 1.00265 20.602 1.00265 18.4827C1.00265 13.9729 0.764957 11.2195 5.237 6.45652Z" stroke="white" stroke-width="2" stroke-linecap="round" stroke-linejoin="round"/>
</svg>
