<svg width="25" height="25" viewBox="0 0 25 25" fill="none" xmlns="http://www.w3.org/2000/svg">
<path d="M12.5 16.6667H13.5417C14.2361 16.6667 15.625 16.25 15.625 14.5833C15.625 12.9167 14.2361 12.5 13.5417 12.5H11.4583C10.7639 12.5 9.375 12.0833 9.375 10.4167C9.375 8.75 10.7639 8.33333 11.4583 8.33333H12.5M12.5 16.6667H9.375M12.5 16.6667V18.75M15.625 8.33333H12.5M12.5 8.33333V6.25M21.875 12.5C21.875 17.6777 17.6777 21.875 12.5 21.875C7.32233 21.875 3.125 17.6777 3.125 12.5C3.125 7.32233 7.32233 3.125 12.5 3.125C17.6777 3.125 21.875 7.32233 21.875 12.5Z" stroke="#001A72" stroke-width="2" stroke-linecap="round" stroke-linejoin="round"/>
</svg>
