<svg width="30" height="31" viewBox="0 0 30 31" fill="none" xmlns="http://www.w3.org/2000/svg">
<path fill-rule="evenodd" clip-rule="evenodd" d="M15 8.81637C9.93234 8.81637 7.61993 13.3218 6.94711 14.9747C6.87301 15.1566 6.87202 15.353 6.94483 15.5371C7.32611 16.5012 8.30765 18.5535 10.1586 20.0189L9.29459 21.1469C7.15738 19.4549 6.05918 17.1301 5.6401 16.0705C5.43062 15.5409 5.43247 14.9567 5.64774 14.4279C6.33751 12.7335 8.97767 7.38672 15 7.38672C17.4028 7.38672 19.2831 8.24717 20.7088 9.39002L19.8381 10.5127C18.626 9.54099 17.0455 8.81637 15 8.81637ZM21.6005 11.2059C21.9074 10.964 22.3491 11.0208 22.587 11.3329C23.5108 12.5446 24.0715 13.7386 24.3508 14.4245C24.5652 14.9505 24.5715 15.5351 24.3611 16.0675C23.688 17.7708 21.1013 23.1132 15 23.1132C13.6625 23.1132 12.4835 22.8535 11.4524 22.4243C11.093 22.2748 10.9209 21.8573 11.0681 21.4919C11.2152 21.1266 11.6258 20.9516 11.9852 21.1012C12.8483 21.4605 13.8465 21.6836 15 21.6836C20.1444 21.6836 22.4048 17.1828 23.0563 15.5345C23.1279 15.3531 23.1269 15.1563 23.0517 14.9716C22.8028 14.3609 22.2992 13.289 21.4755 12.2088C21.2377 11.8967 21.2936 11.4478 21.6005 11.2059Z" fill="#D9DDDF"/>
<path fill-rule="evenodd" clip-rule="evenodd" d="M15 12.8672C13.7056 12.8672 12.6562 13.934 12.6562 15.25C12.6562 15.8296 12.8589 16.3592 13.1968 16.7724C13.4452 17.0759 13.4044 17.5267 13.1058 17.779C12.8073 18.0315 12.3639 17.9901 12.1157 17.6865C11.5754 17.0261 11.25 16.1758 11.25 15.25C11.25 13.1444 12.9289 11.4375 15 11.4375C15.9892 11.4375 16.8904 11.8279 17.56 12.4641C17.8437 12.7336 17.8588 13.186 17.5936 13.4744C17.3285 13.7629 16.8835 13.7782 16.5998 13.5086C16.1803 13.1101 15.6188 12.8672 15 12.8672ZM18.0468 14.5351C18.4352 14.5351 18.75 14.8552 18.75 15.25C18.75 17.3556 17.0711 19.0625 15 19.0625C14.6117 19.0625 14.2968 18.7424 14.2968 18.3476C14.2968 17.9529 14.6117 17.6328 15 17.6328C16.2944 17.6328 17.3438 16.566 17.3438 15.25C17.3438 14.8552 17.6586 14.5351 18.0468 14.5351Z" fill="#D9DDDF"/>
<path fill-rule="evenodd" clip-rule="evenodd" d="M23.1143 7.00039C23.389 7.27955 23.389 7.73217 23.1143 8.01133L7.88 23.4996C7.60541 23.7788 7.16022 23.7788 6.88563 23.4996C6.61104 23.2204 6.61104 22.7678 6.88563 22.4887L22.12 7.00039C22.3946 6.72123 22.8398 6.72123 23.1143 7.00039Z" fill="#D9DDDF"/>
</svg>
