<svg width="31" height="27" viewBox="0 0 31 27" fill="none" xmlns="http://www.w3.org/2000/svg">
<path d="M26.35 0H4.65C3.41674 0 2.234 0.533369 1.36195 1.48277C0.489909 2.43218 0 3.71984 0 5.0625V21.9375C0 23.2802 0.489909 24.5678 1.36195 25.5172C2.234 26.4666 3.41674 27 4.65 27H26.35C27.5833 27 28.766 26.4666 29.638 25.5172C30.5101 24.5678 31 23.2802 31 21.9375V5.0625C31 3.71984 30.5101 2.43218 29.638 1.48277C28.766 0.533369 27.5833 0 26.35 0ZM4.65 3.375H26.35C26.7611 3.375 27.1553 3.55279 27.446 3.86926C27.7367 4.18573 27.9 4.61495 27.9 5.0625L15.5 13.2975L3.1 5.0625C3.1 4.61495 3.2633 4.18573 3.55398 3.86926C3.84467 3.55279 4.23891 3.375 4.65 3.375ZM27.9 21.9375C27.9 22.3851 27.7367 22.8143 27.446 23.1307C27.1553 23.4472 26.7611 23.625 26.35 23.625H4.65C4.23891 23.625 3.84467 23.4472 3.55398 23.1307C3.2633 22.8143 3.1 22.3851 3.1 21.9375V8.91L14.694 16.6219C14.9296 16.77 15.1969 16.848 15.469 16.848C15.7411 16.848 16.0084 16.77 16.244 16.6219L27.9 8.91V21.9375Z" fill="white"/>
</svg>
