<svg width="15" height="15" viewBox="0 0 15 15" fill="none" xmlns="http://www.w3.org/2000/svg">
<path d="M7.92462 13.0513C7.65732 12.9079 7.34268 12.9079 7.07538 13.0513L3.64953 14.8898C2.92397 15.2792 2.10702 14.5758 2.30376 13.7312L3.1048 10.2922C3.18139 9.96336 3.10066 9.6152 2.88941 9.36328L0.24513 6.20984C-0.281959 5.58126 0.0924583 4.5769 0.878055 4.51204L4.56688 4.20748C4.91195 4.17899 5.21524 3.95126 5.35844 3.6131L6.63562 0.597382C6.97294 -0.199126 8.02706 -0.199128 8.36438 0.597381L9.64155 3.6131C9.78476 3.95126 10.0881 4.17899 10.4331 4.20748L14.1219 4.51204C14.9075 4.5769 15.282 5.58126 14.7549 6.20984L12.1106 9.36328C11.8993 9.6152 11.8186 9.96336 11.8952 10.2922L12.6962 13.7312C12.893 14.5758 12.076 15.2792 11.3505 14.8898L7.92462 13.0513Z" fill="#FFEA2C"/>
<path d="M8.04284 12.8311C7.7017 12.648 7.2983 12.648 6.95716 12.8311L3.53131 14.6695C3.26973 14.8099 2.99489 14.7568 2.7939 14.5838C2.59116 14.4092 2.47084 14.1159 2.54725 13.7879L3.34828 10.3489C3.44215 9.94591 3.34432 9.5167 3.08098 9.20265L0.436694 6.04921C0.237219 5.81133 0.205547 5.49986 0.303587 5.23687C0.401457 4.97434 0.617913 4.78437 0.898625 4.76119L4.58745 4.45663C5.03196 4.41994 5.41193 4.12787 5.58865 3.7106L6.86582 0.694876C7.11703 0.101708 7.88297 0.101708 8.13418 0.694874L9.41135 3.7106C9.58807 4.12787 9.96804 4.41994 10.4125 4.45663L14.1014 4.76119C14.3821 4.78437 14.5985 4.97434 14.6964 5.23687C14.7945 5.49986 14.7628 5.81133 14.5633 6.04921L11.919 9.20265C11.6557 9.5167 11.5579 9.94591 11.6517 10.3489L12.4528 13.7879C12.5292 14.1159 12.4088 14.4092 12.2061 14.5838C12.0051 14.7568 11.7303 14.8099 11.4687 14.6695L8.04284 12.8311Z" stroke="#EEEEEE" stroke-width="0.5" stroke-linecap="round" stroke-linejoin="round"/>
</svg>
