<svg width="15" height="15" viewBox="0 0 15 15" fill="none" xmlns="http://www.w3.org/2000/svg">
<path d="M12.1875 5.25V3.75C12.1875 1.65 10.125 0 7.5 0C4.875 0 2.8125 1.65 2.8125 3.75V5.25C1.21875 5.25 0 6.225 0 7.5V12.75C0 14.025 1.21875 15 2.8125 15H12.1875C13.7812 15 15 14.025 15 12.75V7.5C15 6.225 13.7812 5.25 12.1875 5.25ZM4.6875 3.75C4.6875 2.475 5.90625 1.5 7.5 1.5C9.09375 1.5 10.3125 2.475 10.3125 3.75V5.25H4.6875V3.75ZM8.53125 10.125L8.4375 10.2V11.25C8.4375 11.7 8.0625 12 7.5 12C6.9375 12 6.5625 11.7 6.5625 11.25V10.2C6 9.75 5.90625 9.075 6.46875 8.625C7.03125 8.175 7.875 8.1 8.4375 8.55C9 8.925 9.09375 9.675 8.53125 10.125Z" fill="white"/>
</svg>
