<svg width="19" height="19" viewBox="0 0 19 19" fill="none" xmlns="http://www.w3.org/2000/svg">
<path d="M9.90339 14.085C9.64945 13.9563 9.35055 13.9563 9.09661 14.085L5.84205 15.7345C5.15277 16.0838 4.37667 15.4528 4.56358 14.6949L5.32456 11.6094C5.39732 11.3143 5.32063 11.002 5.11994 10.7759L2.60787 7.94661C2.10714 7.38263 2.46284 6.48149 3.20915 6.4233L6.71354 6.15005C7.04135 6.12449 7.32947 5.92015 7.46552 5.61676L8.67884 2.91098C8.9993 2.19634 10.0007 2.19634 10.3212 2.91098L11.5345 5.61676C11.6705 5.92015 11.9587 6.12449 12.2865 6.15005L15.7908 6.4233C16.5372 6.48149 16.8929 7.38263 16.3921 7.94661L13.8801 10.7759C13.6794 11.002 13.6027 11.3143 13.6754 11.6094L14.4364 14.6949C14.6233 15.4528 13.8472 16.0838 13.158 15.7345L9.90339 14.085Z" fill="#FFEA2C"/>
<path d="M10.0164 13.862C9.69143 13.6972 9.30857 13.6972 8.98359 13.862L5.72903 15.5115C5.23829 15.7602 4.6685 15.3135 4.8063 14.7548L5.56729 11.6692C5.65962 11.2948 5.56254 10.8979 5.30689 10.61L2.79482 7.78063C2.42749 7.3669 2.6938 6.71424 3.22859 6.67254L6.73298 6.39929C7.15327 6.36652 7.52069 6.10474 7.69364 5.71905L8.90695 3.01328C9.1391 2.49558 9.8609 2.49558 10.093 3.01327L11.3064 5.71905C11.4793 6.10474 11.8467 6.36652 12.267 6.39929L15.7714 6.67254C16.3062 6.71424 16.5725 7.3669 16.2052 7.78062L13.6931 10.61C13.4375 10.8979 13.3404 11.2948 13.4327 11.6692L14.1937 14.7548C14.3315 15.3135 13.7617 15.7602 13.271 15.5115L10.0164 13.862Z" stroke="#EEEEEE" stroke-width="0.5" stroke-linecap="round" stroke-linejoin="round"/>
</svg>
