<svg width="36" height="32" viewBox="0 0 36 32" fill="none" xmlns="http://www.w3.org/2000/svg">
<path d="M8.5 1.5H5C3.067 1.5 1.5 3.067 1.5 5V8.5" stroke="white" stroke-width="3" stroke-linecap="round" stroke-linejoin="round"/>
<path d="M27.5 1.5H31C32.933 1.5 34.5 3.067 34.5 5V8.5" stroke="white" stroke-width="3" stroke-linecap="round" stroke-linejoin="round"/>
<path d="M25.5 9.5V12.5" stroke="white" stroke-width="3" stroke-linecap="round" stroke-linejoin="round"/>
<path d="M10.5 9.5V12.5" stroke="white" stroke-width="3" stroke-linecap="round" stroke-linejoin="round"/>
<path d="M12.5 22.5C12.5 22.5 14.3333 24.5 18 24.5C21.6667 24.5 23.5 22.5 23.5 22.5" stroke="white" stroke-width="3" stroke-linecap="round" stroke-linejoin="round"/>
<path d="M18.5 9.5V17.5H16.5" stroke="white" stroke-width="3" stroke-linecap="round" stroke-linejoin="round"/>
<path d="M8.5 30.5H5C3.067 30.5 1.5 29.1569 1.5 27.5V24.5" stroke="white" stroke-width="3" stroke-linecap="round" stroke-linejoin="round"/>
<path d="M27.5 30.5H31C32.933 30.5 34.5 29.1569 34.5 27.5V24.5" stroke="white" stroke-width="3" stroke-linecap="round" stroke-linejoin="round"/>
</svg>
