<svg width="9" height="10" viewBox="0 0 9 10" fill="none" xmlns="http://www.w3.org/2000/svg">
<path d="M4.738 8.7009C4.57818 8.60526 4.39007 8.60526 4.23025 8.7009L2.18199 9.92655C1.74819 10.1861 1.25975 9.71721 1.37738 9.15411L1.85631 6.86145C1.9021 6.64224 1.85383 6.41013 1.72753 6.24219L0.146559 4.1399C-0.168579 3.72084 0.0552793 3.05126 0.524975 3.00802L2.73047 2.80499C2.93677 2.786 3.1181 2.63417 3.20373 2.40874L3.96733 0.398255C4.16901 -0.132751 4.79925 -0.132752 5.00093 0.398254L5.76453 2.40874C5.85015 2.63417 6.03148 2.786 6.23779 2.80499L8.44328 3.00802C8.91297 3.05126 9.13683 3.72084 8.8217 4.1399L7.24072 6.24219C7.11442 6.41013 7.06615 6.64224 7.11194 6.86145L7.59087 9.15411C7.7085 9.71722 7.22006 10.1861 6.78626 9.92655L4.738 8.7009Z" fill="#FFEA2C"/>
<path d="M4.86637 8.48637C4.62751 8.34344 4.34074 8.34344 4.10188 8.48637L2.05362 9.71202C1.94772 9.77539 1.83902 9.75776 1.74604 9.66849C1.64824 9.5746 1.58042 9.40476 1.6221 9.20523L2.10103 6.91257C2.16044 6.62814 2.10002 6.32155 1.92734 6.09193L0.346365 3.98964C0.245057 3.85492 0.225515 3.67094 0.278554 3.5123C0.332101 3.35214 0.439 3.267 0.547892 3.25697L2.75338 3.05394C3.07256 3.02455 3.32475 2.7942 3.43744 2.4975L4.20104 0.48702C4.26918 0.30761 4.39123 0.25 4.48413 0.25C4.57702 0.25 4.69907 0.307609 4.76722 0.487019L5.53082 2.4975C5.6435 2.7942 5.89569 3.02455 6.21487 3.05394L8.42036 3.25697C8.52925 3.267 8.63615 3.35214 8.6897 3.5123C8.74274 3.67094 8.7232 3.85492 8.62189 3.98964L7.04092 6.09193C6.86824 6.32155 6.80781 6.62814 6.86723 6.91257L7.34615 9.20523C7.38783 9.40476 7.32001 9.5746 7.22222 9.66849C7.12923 9.75776 7.02054 9.77539 6.91463 9.71202L4.86637 8.48637Z" stroke="#EEEEEE" stroke-width="0.5" stroke-linecap="round" stroke-linejoin="round"/>
</svg>
