<svg width="14" height="18" viewBox="0 0 14 18" fill="none" xmlns="http://www.w3.org/2000/svg">
<path d="M11.375 6.3V4.5C11.375 1.98 9.45 0 7 0C4.55 0 2.625 1.98 2.625 4.5V6.3C1.1375 6.3 0 7.47 0 9V15.3C0 16.83 1.1375 18 2.625 18H11.375C12.8625 18 14 16.83 14 15.3V9C14 7.47 12.8625 6.3 11.375 6.3ZM4.375 4.5C4.375 2.97 5.5125 1.8 7 1.8C8.4875 1.8 9.625 2.97 9.625 4.5V6.3H4.375V4.5ZM7.9625 12.15L7.875 12.24V13.5C7.875 14.04 7.525 14.4 7 14.4C6.475 14.4 6.125 14.04 6.125 13.5V12.24C5.6 11.7 5.5125 10.89 6.0375 10.35C6.5625 9.81 7.35 9.72 7.875 10.26C8.4 10.71 8.4875 11.61 7.9625 12.15Z" fill="#D9DDDF"/>
</svg>
