<svg width="30" height="20" viewBox="0 0 30 20" fill="none" xmlns="http://www.w3.org/2000/svg">
<path fill-rule="evenodd" clip-rule="evenodd" d="M15 5.78122C9.93234 5.78122 7.61993 8.73561 6.94711 9.81945C6.87301 9.93878 6.87202 10.0676 6.94483 10.1883C7.32611 10.8204 8.30765 12.1662 10.1586 13.1272L9.29459 13.8668C7.15738 12.7573 6.05918 11.2328 5.6401 10.538C5.43062 10.1907 5.43247 9.80767 5.64774 9.46089C6.33751 8.34984 8.97767 4.84375 15 4.84375C17.4028 4.84375 19.2831 5.40798 20.7088 6.15739L19.8381 6.89356C18.626 6.25639 17.0455 5.78122 15 5.78122ZM21.6005 7.34811C21.9074 7.1895 22.3491 7.22678 22.587 7.43139C23.5108 8.22595 24.0715 9.00895 24.3508 9.45867C24.5652 9.80361 24.5715 10.1869 24.3611 10.5361C23.688 11.653 21.1013 15.1562 15 15.1562C13.6625 15.1562 12.4835 14.9859 11.4524 14.7045C11.093 14.6064 10.9209 14.3327 11.0681 14.0931C11.2152 13.8535 11.6258 13.7388 11.9852 13.8368C12.8483 14.0724 13.8465 14.2188 15 14.2188C20.1444 14.2188 22.4048 11.2674 23.0563 10.1866C23.1279 10.0676 23.1269 9.93856 23.0517 9.81745C22.8028 9.417 22.2992 8.71411 21.4755 8.00578C21.2377 7.80111 21.2936 7.50672 21.6005 7.34811Z" fill="#D9DDDF"/>
<path fill-rule="evenodd" clip-rule="evenodd" d="M15 8.4375C13.7056 8.4375 12.6562 9.13706 12.6562 10C12.6562 10.3801 12.8589 10.7273 13.1968 10.9983C13.4452 11.1973 13.4044 11.4929 13.1058 11.6584C12.8073 11.8239 12.3639 11.7968 12.1157 11.5977C11.5754 11.1647 11.25 10.6071 11.25 10C11.25 8.61928 12.9289 7.5 15 7.5C15.9892 7.5 16.8904 7.756 17.56 8.17317C17.8437 8.34989 17.8588 8.64656 17.5936 8.83567C17.3285 9.02483 16.8835 9.03489 16.5998 8.85811C16.1803 8.59678 15.6188 8.4375 15 8.4375ZM18.0468 9.53122C18.4352 9.53122 18.75 9.74111 18.75 10C18.75 11.3807 17.0711 12.5 15 12.5C14.6117 12.5 14.2968 12.2901 14.2968 12.0312C14.2968 11.7724 14.6117 11.5625 15 11.5625C16.2944 11.5625 17.3438 10.8629 17.3438 10C17.3438 9.74111 17.6586 9.53122 18.0468 9.53122Z" fill="#D9DDDF"/>
<path fill-rule="evenodd" clip-rule="evenodd" d="M23.1143 4.59042C23.389 4.77348 23.389 5.07027 23.1143 5.25333L7.88 15.4096C7.60541 15.5927 7.16022 15.5927 6.88563 15.4096C6.61104 15.2265 6.61104 14.9297 6.88563 14.7467L22.12 4.59042C22.3946 4.40736 22.8398 4.40736 23.1143 4.59042Z" fill="white"/>
</svg>
