<svg width="15" height="14" viewBox="0 0 15 14" fill="none" xmlns="http://www.w3.org/2000/svg">
<path d="M12.75 0H2.25C1.65326 0 1.08097 0.273523 0.65901 0.760396C0.237053 1.24727 0 1.90761 0 2.59615V11.25C0 11.9385 0.237053 12.5989 0.65901 13.0858C1.08097 13.5726 1.65326 13.8462 2.25 13.8462H12.75C13.3467 13.8462 13.919 13.5726 14.341 13.0858C14.7629 12.5989 15 11.9385 15 11.25V2.59615C15 1.90761 14.7629 1.24727 14.341 0.760396C13.919 0.273523 13.3467 0 12.75 0ZM2.25 1.73077H12.75C12.9489 1.73077 13.1397 1.82194 13.2803 1.98423C13.421 2.14653 13.5 2.36664 13.5 2.59615L7.5 6.81923L1.5 2.59615C1.5 2.36664 1.57902 2.14653 1.71967 1.98423C1.86032 1.82194 2.05109 1.73077 2.25 1.73077ZM13.5 11.25C13.5 11.4795 13.421 11.6996 13.2803 11.8619C13.1397 12.0242 12.9489 12.1154 12.75 12.1154H2.25C2.05109 12.1154 1.86032 12.0242 1.71967 11.8619C1.57902 11.6996 1.5 11.4795 1.5 11.25V4.56923L7.11 8.52404C7.22401 8.59999 7.35335 8.63998 7.485 8.63998C7.61665 8.63998 7.74599 8.59999 7.86 8.52404L13.5 4.56923V11.25Z" fill="#D9DDDF"/>
</svg>
