<svg width="19" height="18" viewBox="0 0 19 18" fill="none" xmlns="http://www.w3.org/2000/svg">
<path d="M9.90339 12.8397C9.64945 12.7223 9.35055 12.7223 9.09661 12.8397L5.84205 14.3433C5.15277 14.6618 4.37667 14.0865 4.56358 13.3957L5.32456 10.583C5.39732 10.314 5.32063 10.0293 5.11994 9.82322L2.60787 7.24404C2.10714 6.72993 2.46284 5.90846 3.20915 5.85541L6.71354 5.60632C7.04135 5.58302 7.32947 5.39675 7.46552 5.12018L8.67884 2.65363C8.9993 2.00217 10.0007 2.00217 10.3212 2.65363L11.5345 5.12018C11.6705 5.39675 11.9587 5.58302 12.2865 5.60632L15.7908 5.85541C16.5372 5.90846 16.8929 6.72993 16.3921 7.24404L13.8801 9.82322C13.6794 10.0293 13.6027 10.314 13.6754 10.583L14.4364 13.3957C14.6233 14.0865 13.8472 14.6618 13.158 14.3433L9.90339 12.8397Z" fill="#FFEA2C"/>
<path d="M8.99175 12.6127L5.73719 14.1164C5.48126 14.2346 5.2117 14.1869 5.02311 14.0472C4.83589 13.9084 4.74231 13.6923 4.8049 13.461L5.56589 10.6482C5.66262 10.2907 5.55891 9.91561 5.29903 9.64878L2.78696 7.06961C2.61124 6.88919 2.58866 6.66467 2.67029 6.47616C2.75288 6.28542 2.94681 6.12469 3.22688 6.10478L6.73127 5.85569C7.14059 5.82659 7.51148 5.59313 7.68985 5.23053L8.90317 2.76398C9.01431 2.53805 9.24776 2.41504 9.5 2.41504C9.75224 2.41504 9.98569 2.53805 10.0968 2.76398L11.3101 5.23053C11.4885 5.59313 11.8594 5.82659 12.2687 5.85569L15.7731 6.10478C16.0532 6.12469 16.2471 6.28542 16.3297 6.47616C16.4113 6.66467 16.3888 6.88919 16.213 7.06961L13.701 9.64878C13.4411 9.91561 13.3374 10.2907 13.4341 10.6482L14.1951 13.461C14.2577 13.6923 14.1641 13.9084 13.9769 14.0472C13.7883 14.1869 13.5187 14.2346 13.2628 14.1164L10.0082 12.6127C9.68778 12.4647 9.31222 12.4647 8.99175 12.6127Z" stroke="#EEEEEE" stroke-width="0.5" stroke-linecap="round" stroke-linejoin="round"/>
</svg>
