<svg width="28" height="28" viewBox="0 0 28 28" fill="none" xmlns="http://www.w3.org/2000/svg">
<path d="M12.5576 1.01818H15.4424C16.2391 1.01818 16.8848 1.66398 16.8848 2.46061V3.28104C16.8848 3.89811 17.299 4.4342 17.8689 4.67081C18.439 4.90751 19.1028 4.8173 19.5393 4.3808L20.1196 3.80049C20.6829 3.23718 21.5962 3.23718 22.1595 3.80049L24.1994 5.84038C24.7627 6.40368 24.7627 7.31698 24.1994 7.88028L23.6192 8.46051C23.1827 8.89704 23.0924 9.56089 23.3292 10.131C23.5658 10.701 24.1019 11.1152 24.719 11.1152L25.5394 11.1151C26.336 11.1151 26.9818 11.7609 26.9818 12.5576V15.4424C26.9818 16.2391 26.336 16.8848 25.5394 16.8848H24.719C24.1019 16.8848 23.5658 17.299 23.3292 17.8689C23.0925 18.4391 23.1827 19.1029 23.6192 19.5394L24.1994 20.1197C24.7627 20.683 24.7627 21.5963 24.1994 22.1596L22.1595 24.1994C21.5962 24.7627 20.683 24.7628 20.1197 24.1995L19.5394 23.6192C19.1029 23.1827 18.4391 23.0925 17.8689 23.3292C17.299 23.5658 16.8848 24.1019 16.8848 24.719V25.5394C16.8848 26.336 16.2391 26.9818 15.4424 26.9818H12.5576C11.7609 26.9818 11.1152 26.336 11.1152 25.5394V24.719C11.1152 24.1019 10.701 23.5658 10.131 23.3292C9.56089 23.0924 8.89704 23.1827 8.46051 23.6192L7.88025 24.1994C7.31695 24.7627 6.40366 24.7627 5.84036 24.1994L3.80046 22.1595C3.23716 21.5962 3.23716 20.683 3.80046 20.1197L4.3808 19.5393C4.8173 19.1028 4.90751 18.439 4.67081 17.8689C4.4342 17.299 3.89811 16.8848 3.28104 16.8848H2.46061C1.66398 16.8848 1.01818 16.2391 1.01818 15.4424V12.5576C1.01818 11.7609 1.66398 11.1152 2.46061 11.1152L3.28101 11.1152C3.89809 11.1152 4.4342 10.701 4.67082 10.1311C4.90753 9.56094 4.81732 8.89711 4.38081 8.4606L3.80049 7.88028C3.23718 7.31698 3.23718 6.40369 3.80049 5.84039L5.84038 3.80049C6.40368 3.23719 7.31698 3.23719 7.88028 3.80049L8.46059 4.38081C8.89711 4.81732 9.56094 4.90753 10.1311 4.67082C10.701 4.4342 11.1152 3.89809 11.1152 3.281V2.46061C11.1152 1.66398 11.7609 1.01818 12.5576 1.01818Z" stroke="white" stroke-width="2"/>
<path d="M16.8848 14C16.8848 15.5933 15.5933 16.8848 14 16.8848C12.4067 16.8848 11.1152 15.5933 11.1152 14C11.1152 12.4067 12.4067 11.1152 14 11.1152C15.5933 11.1152 16.8848 12.4067 16.8848 14Z" stroke="white" stroke-width="2"/>
</svg>
