<svg width="34" height="34" viewBox="0 0 34 34" fill="none" xmlns="http://www.w3.org/2000/svg">
<path d="M15.5833 4.25H18.4167C19.1991 4.25 19.8333 4.88426 19.8333 5.66667V6.47245C19.8333 7.0785 20.2401 7.60502 20.7998 7.8374C21.3597 8.06988 22.0117 7.98128 22.4404 7.55257L23.0104 6.98262C23.5636 6.42938 24.4606 6.42938 25.0138 6.98262L27.0173 8.98609C27.5705 9.53933 27.5705 10.4363 27.0173 10.9896L26.4474 11.5594C26.0187 11.9882 25.9301 12.6402 26.1626 13.2001C26.395 13.7599 26.9215 14.1667 27.5276 14.1667L28.3333 14.1667C29.1157 14.1667 29.75 14.8009 29.75 15.5833V18.4167C29.75 19.1991 29.1157 19.8333 28.3333 19.8333H27.5276C26.9215 19.8333 26.395 20.2401 26.1626 20.7998C25.9301 21.3598 26.0187 22.0118 26.4474 22.4405L27.0173 23.0104C27.5706 23.5636 27.5706 24.4606 27.0173 25.0138L25.0138 27.0173C24.4606 27.5706 23.5636 27.5706 23.0104 27.0173L22.4405 26.4474C22.0118 26.0187 21.3598 25.9301 20.7998 26.1626C20.2401 26.395 19.8333 26.9215 19.8333 27.5276V28.3333C19.8333 29.1157 19.1991 29.75 18.4167 29.75H15.5833C14.8009 29.75 14.1667 29.1157 14.1667 28.3333V27.5276C14.1667 26.9215 13.7599 26.395 13.2001 26.1626C12.6402 25.9301 11.9882 26.0187 11.5594 26.4474L10.9895 27.0173C10.4363 27.5706 9.53931 27.5706 8.98607 27.0173L6.9826 25.0138C6.42935 24.4606 6.42935 23.5636 6.9826 23.0104L7.55257 22.4404C7.98128 22.0117 8.06988 21.3597 7.8374 20.7998C7.60502 20.2401 7.0785 19.8333 6.47245 19.8333H5.66667C4.88426 19.8333 4.25 19.1991 4.25 18.4167V15.5833C4.25 14.8009 4.88426 14.1667 5.66667 14.1667L6.47242 14.1667C7.07849 14.1667 7.60502 13.7599 7.83741 13.2002C8.0699 12.6402 7.9813 11.9882 7.55258 11.5595L6.98262 10.9896C6.42938 10.4363 6.42938 9.53934 6.98262 8.98609L8.98609 6.98262C9.53933 6.42938 10.4363 6.42938 10.9896 6.98263L11.5595 7.55258C11.9882 7.9813 12.6402 8.0699 13.2002 7.83742C13.7599 7.60502 14.1667 7.07848 14.1667 6.47242V5.66667C14.1667 4.88426 14.8009 4.25 15.5833 4.25Z" stroke="black" stroke-width="2"/>
<path d="M19.8333 17C19.8333 18.5648 18.5648 19.8333 17 19.8333C15.4352 19.8333 14.1667 18.5648 14.1667 17C14.1667 15.4352 15.4352 14.1667 17 14.1667C18.5648 14.1667 19.8333 15.4352 19.8333 17Z" stroke="black" stroke-width="2"/>
</svg>
